<?xml version="1.0" standalone="no"?><!DOCTYPE svg PUBLIC "-//W3C//DTD SVG 1.1//EN" "http://www.w3.org/Graphics/SVG/1.1/DTD/svg11.dtd"><svg t="1716260779186" class="icon" viewBox="0 0 1024 1024" version="1.1" xmlns="http://www.w3.org/2000/svg" p-id="32815" xmlns:xlink="http://www.w3.org/1999/xlink" width="200" height="200"><path d="M896 224V832L768 768l-128 64-128-64-128 64L256 768l-128 64V224a32 32 0 0 1 32-32h704a32 32 0 0 1 32 32z" fill="#E00F63" opacity=".2" p-id="32816"></path><path d="M864 160H160a64 64 0 0 0-64 64V832a32 32 0 0 0 46.336 28.586667L256 803.754667l113.664 56.832a32 32 0 0 0 28.672 0L512 803.754667l113.664 56.832a32 32 0 0 0 28.672 0L768 803.754667l113.664 56.832a32 32 0 0 0 46.336-28.586667V224a64 64 0 0 0-64-64z m0 620.245333l-81.664-40.874666a32 32 0 0 0-28.672 0L640 796.245333l-113.664-56.874666a32 32 0 0 0-28.672 0L384 796.245333l-113.664-56.874666a32 32 0 0 0-28.672 0l-81.664 40.874666V224h704v556.245333zM393.386667 553.344l73.386666-73.344-73.386666-73.386667a32 32 0 0 1 45.226666-45.226666L512 434.773333l73.386667-73.386666a32.042667 32.042667 0 0 1 45.226666 45.226666l-73.386666 73.386667 73.386666 73.386667a32 32 0 1 1-45.226666 45.226666L512 525.226667l-73.386667 73.386666a32 32 0 1 1-45.226666-45.226666z" fill="#E00F63" p-id="32817"></path></svg>